<svg viewBox="0 0 15 30"><path style="fill:purple;fill-rule:evenodd" fill="#ff4713" d="M12.054 27.138a6.12 6.12 0 01-8.67 0 6.152 6.152 0 01-1.405-6.488h-.006l.05-.127.025-.065L6.505 9h.004a1.3 1.3 0 011.21-.831 1.3 1.3 0 011.21.83h.003l4.457 11.456.027.07.048.124h-.004a6.152 6.152 0 01-1.406 6.488M7.72 5.714A2.341 2.341 0 015.381 3.37a2.341 2.341 0 012.338-2.344 2.341 2.341 0 012.338 2.344A2.341 2.341 0 017.72 5.714"/><ellipse style="fill:#fc0;stroke:#ffc82a;stroke-width:.852593;stroke-opacity:1" cx="-7.63" cy="23.195" rx="2.951" ry="2.735" transform="scale(-1 1)"/></svg>