<?xml version="1.0" encoding="UTF-8" standalone="no"?>
<svg
   xmlns:dc="http://purl.org/dc/elements/1.1/"
   xmlns:cc="http://creativecommons.org/ns#"
   xmlns:rdf="http://www.w3.org/1999/02/22-rdf-syntax-ns#"
   xmlns:svg="http://www.w3.org/2000/svg"
   xmlns="http://www.w3.org/2000/svg"
   xmlns:xlink="http://www.w3.org/1999/xlink"
   xmlns:sodipodi="http://sodipodi.sourceforge.net/DTD/sodipodi-0.dtd"
   xmlns:inkscape="http://www.inkscape.org/namespaces/inkscape"
   width="15"
   height="30"
   viewBox="0 0 15 30"
   version="1.1"
   id="svg1015"
   sodipodi:docname="wayfapper_icon.svg"
   inkscape:version="1.0 (4035a4fb49, 2020-05-01)">
  <metadata
     id="metadata1019">
    <rdf:RDF>
      <cc:Work
         rdf:about="">
        <dc:format>image/svg+xml</dc:format>
        <dc:type
           rdf:resource="http://purl.org/dc/dcmitype/StillImage" />
      </cc:Work>
    </rdf:RDF>
  </metadata>
  <sodipodi:namedview
     inkscape:document-rotation="0"
     pagecolor="#ffffff"
     bordercolor="#666666"
     borderopacity="1"
     objecttolerance="10"
     gridtolerance="10"
     guidetolerance="10"
     inkscape:pageopacity="0"
     inkscape:pageshadow="2"
     inkscape:window-width="1920"
     inkscape:window-height="1017"
     id="namedview1017"
     showgrid="true"
     inkscape:zoom="9.8316902"
     inkscape:cx="50.310653"
     inkscape:cy="17.143067"
     inkscape:window-x="1912"
     inkscape:window-y="-8"
     inkscape:window-maximized="1"
     inkscape:current-layer="svg1015">
    <inkscape:grid
       id="grid1910"
       type="xygrid" />
  </sodipodi:namedview>
  <defs
     id="defs996">
    <path
       id="a"
       d="M.394.151H16.03V20.87H.394z" />
  </defs>
  <g
     style="fill:none;fill-rule:evenodd"
     id="g1005"
     transform="translate(47.405054,29.465842)">
    <mask
       fill="#ffffff"
       id="b">
      <use
         height="100%"
         width="100%"
         y="0"
         x="0"
         id="use1000"
         xlink:href="#a" />
    </mask>
  </g>
  <path
     id="path1924"
     d=""
     style="fill:#ffcc00;stroke:#ffc82a;stroke-width:0.143842;stroke-opacity:1" />
  <g
     id="g888">
    <path
       fill="#ff4713"
       d="m 12.05405,27.137585 a 6.12,6.12 0 0 1 -8.670001,0 6.152,6.152 0 0 1 -1.405,-6.488 h -0.006 l 0.05,-0.127 0.025,-0.065 4.457,-11.457 h 0.004 a 1.3,1.3 0 0 1 1.21,-0.830996 1.3,1.3 0 0 1 1.210001,0.830996 h 0.003 l 4.457,11.455 0.027,0.07 0.048,0.124 h -0.004 a 6.152,6.152 0 0 1 -1.406,6.488 M 7.719049,5.713589 a 2.341,2.341 0 0 1 -2.338,-2.344 2.341,2.341 0 0 1 2.338,-2.3440004 2.341,2.341 0 0 1 2.338001,2.3440004 2.341,2.341 0 0 1 -2.338001,2.344"
       id="path1011"
       style="fill:#800080;fill-rule:evenodd" />
  </g>
  <ellipse
     transform="scale(-1,1)"
     ry="2.7347872"
     rx="2.950551"
     cy="23.1954"
     cx="-7.6302805"
     id="path1085"
     style="fill:#ffcc00;stroke:#ffc82a;stroke-width:0.852593;stroke-opacity:1" />
</svg>
